# xmcd CD database file
#
# Track frame offsets:
#	150
#	28462
#	45942
#	64232
#	82025
#	102325
#	121230
#	141300
#	163552
#	182502
#
# Disc length: 2916 seconds
#
# Revision: 0
# Processed by: cddbd v1.5.2PL0 Copyright (c) Steve Scherf et al.
# Submitted via: CDex 1.70beta2
#
DISCID=860b620a
DTITLE=Chris Rea - ShamRock Diaries
DYEAR=1985
DGENRE=Blues
TTITLE0=Steel river
TTITLE1=Stainsby girls
TTITLE2=Chisel hill
TTITLE3=Josephine
TTITLE4=One golden rule
TTITLE5=All summer long
TTITLE6=Stone
TTITLE7=Shamrock diaries
TTITLE8=Love turns to lies
TTITLE9=Hired gun
EXTD=YEAR: 1985
EXTT0=
EXTT1=
EXTT2=
EXTT3=
EXTT4=
EXTT5=
EXTT6=
EXTT7=
EXTT8=
EXTT9=
PLAYORDER=
